# xmcd CD database file
#
# Track frame offsets:
#	150
#	9152
#	12349
#	15793
#	18837
#	21891
#	25071
#	28245
#	31604
#	42775
#	53773
#	64291
#	78169
#	86424
#	98110
#	111578
#	120828
#	130249
#	142713
#	145806
#	152067
#	156860
#	159934
#	163614
#	168910
#	178096
#	182282
#	192297
#	199183
#	209831
#	224438
#	235277
#	244317
#	250708
#	257815
#	264936
#	280558
#	302340
#	307824
#	314882
#	325034
#
# Disc length: 4466 seconds
#
# Revision: 1
# Processed by: cddbd v1.5.2PL0 Copyright (c) Steve Scherf et al.
# Submitted via: CDex 1.70beta2
#
DISCID=0d117029
DTITLE=Michael Sagmeister - JazzGitarre
DYEAR=1999
DGENRE=Jazz
TTITLE0=Jam-Track C Major - S.11
TTITLE1=Ionisch - S.17
TTITLE2=Dorisch - S.17
TTITLE3=Phrygisch - S.17
TTITLE4=Lydisch - S.17
TTITLE5=Mixolydisch - S.17
TTITLE6=Äolisch - S.17
TTITLE7=Lokrisch - S.17
TTITLE8=Scale Splittings - S.22
TTITLE9=Variationen - S.26
TTITLE10=Scale Connection - S.28
TTITLE11=C Major Tune - S.36
TTITLE12=Jam-Track C - Harmonisch Moll - S.42
TTITLE13=Modes - Improvisation - S.44
TTITLE14=C Harmonic Minor Tune - S.48
TTITLE15=Jam-Track C-Melodisch Moll - S.57
TTITLE16=C-Melodisch Moll - S.57
TTITLE17=C Melodic Minor Tune - S.60
TTITLE18=II-V-I in Es-Dur - S.64
TTITLE19=Hörbeispiele für IIm7-V7-Imaj7 - S.66/76
TTITLE20=Hörbeispiele für IIm(maj7)-V7alt.-Imaj7 - S.70/79/82
TTITLE21=Hörbeispiele für IIm7-V7-Imaj7(#11) - S.74/82
TTITLE22=II-V-I in Moll - IIm7-V7(b9)-Im7 - S.84
TTITLE23=Hörbeispiele für Scale Designs1 - S.90
TTITLE24=Hörbeispiele für Scale Designs2 - S.92
TTITLE25=Turnaround - I-VI-II-V - S.99
TTITLE26=Scale Designs für Imaj7-V7alt./IIm7-IIm7-V7alt.1 - S.109
TTITLE27=Scale Designs für Imaj7-V7alt./IIm7-IIm7-V7alt.2 - S.112
TTITLE28=Bluesprogression 1 - Here We Go - S.126
TTITLE29=Bluesprogression 2 - Dance Sister Dance - S.139
TTITLE30=Bluesprogression 3 - You - S.144
TTITLE31=Bluesprogression 4 - Jam - S.149
TTITLE32=Mollblues 1 - S.159
TTITLE33=Mollblues 2 - S.167
TTITLE34=Mollblues 3 - S.178
TTITLE35=Scale Colouring - S.191
TTITLE36=Scale Designs mit Optionen and Tensionen - S.192
TTITLE37=Modern Blues 1 - S.201
TTITLE38=Modern Blues 2 - S.202
TTITLE39=Standard Progression 2 mit Three Note Comping - S.216
TTITLE40=Standard Progression 2 mit Two Note Comping - S.221
EXTD=YEAR: 1999
EXTT0=
EXTT1=
EXTT2=
EXTT3=
EXTT4=
EXTT5=
EXTT6=
EXTT7=
EXTT8=
EXTT9=
EXTT10=
EXTT11=
EXTT12=
EXTT13=
EXTT14=
EXTT15=
EXTT16=
EXTT17=
EXTT18=
EXTT19=
EXTT20=
EXTT21=
EXTT22=
EXTT23=
EXTT24=
EXTT25=
EXTT26=
EXTT27=
EXTT28=
EXTT29=
EXTT30=
EXTT31=
EXTT32=
EXTT33=
EXTT34=
EXTT35=
EXTT36=
EXTT37=
EXTT38=
EXTT39=
EXTT40=
PLAYORDER=
